<?xml version="1.0" standalone="no"?>
<!DOCTYPE svg PUBLIC "-//W3C//DTD SVG 20010904//EN"
 "http://www.w3.org/TR/2001/REC-SVG-20010904/DTD/svg10.dtd">
<svg version="1.0" xmlns="http://www.w3.org/2000/svg"
 width="599.899952pt" height="644.671347pt" viewBox="0 0 599.899952 644.671347"
 preserveAspectRatio="xMidYMid meet">
<metadata>Created by Svg.la</metadata>
<g transform="translate(-105.600048,721.788522) scale(0.100000,-0.100000)"
fill="#000000" stroke="none">
<path d="M1886 7200 c-63 -25 -128 -88 -158 -154 l-23 -51 0 -1234 c0 -875 3
-1235 11 -1238 6 -2 45 19 88 47 97 64 176 103 279 141 45 16 90 39 100 50 16
20 17 82 17 1000 l0 979 1575 0 c1562 0 1575 0 1595 -20 20 -20 20 -33 20
-2719 l0 -2700 -26 -20 -27 -21 -1568 0 -1569 0 0 798 c0 761 -1 800 -18 815
-10 10 -26 17 -36 17 -28 0 -90 -36 -167 -98 -149 -120 -250 -246 -269 -336
-7 -36 -10 -275 -8 -752 l3 -699 24 -52 c27 -61 93 -126 159 -156 l47 -22
2425 -3 c2390 -2 2426 -2 2490 17 77 24 138 71 178 139 l27 47 0 3025 0 3025
-27 45 c-33 56 -70 92 -128 122 l-45 23 -2460 2 c-2409 2 -2461 2 -2509 -17z
m4694 -3200 l0 -2740 -352 0 -353 0 3 2740 2 2740 350 0 350 0 0 -2740z"/>
<path d="M3450 5331 c-67 -21 -115 -60 -156 -126 -17 -26 -19 -58 -24 -330
l-5 -300 -290 -6 c-159 -4 -303 -10 -320 -14 -16 -3 -61 -13 -100 -21 -401
-88 -803 -329 -1062 -637 -281 -335 -433 -738 -437 -1157 -1 -122 1 -139 21
-177 34 -64 75 -88 150 -88 90 0 109 16 236 213 227 352 601 602 1047 699 105
23 142 25 438 30 l322 5 0 -288 c0 -282 1 -290 24 -339 56 -121 190 -169 304
-111 34 18 207 185 613 593 312 312 575 583 584 602 26 52 30 129 10 197 -16
59 -19 61 -593 637 -323 324 -593 587 -614 598 -44 23 -112 32 -148 20z"/>
</g>
</svg>
