<?xml version="1.0" standalone="no"?>
<!DOCTYPE svg PUBLIC "-//W3C//DTD SVG 20010904//EN"
 "http://www.w3.org/TR/2001/REC-SVG-20010904/DTD/svg10.dtd">
<svg version="1.0" xmlns="http://www.w3.org/2000/svg"
 width="618.008626pt" height="612.476846pt" viewBox="0 0 618.008626 612.476846"
 preserveAspectRatio="xMidYMid meet">
<metadata>Created by Svg.la</metadata>
<g transform="translate(-97.089025,706.265586) scale(0.100000,-0.100000)"
fill="#000000" stroke="none">
<path d="M2580 7060 c-228 -4 -301 -8 -320 -19 -58 -33 -91 -66 -117 -119
l-28 -57 -3 -589 -3 -589 28 19 c122 80 253 93 369 34 l54 -27 0 442 0 443
603 7 c331 4 994 6 1474 4 821 -4 873 -5 890 -22 17 -17 18 -134 18 -2586 0
-2512 0 -2569 -19 -2590 l-19 -21 -1474 0 -1473 0 0 513 0 514 -59 -30 c-107
-53 -239 -47 -336 14 -25 16 -48 29 -50 29 -2 0 -4 -291 -5 -647 l0 -648 24
-50 c29 -61 66 -97 130 -125 l48 -22 2323 0 c2281 0 2323 0 2366 19 53 24 103
71 130 124 19 38 19 71 20 2897 0 3097 4 2895 -52 2976 -12 18 -45 49 -72 67
l-50 34 -241 2 c-513 6 -3877 8 -4156 3z m4120 -3065 l0 -2605 -350 0 -350 0
0 2605 0 2605 350 0 350 0 0 -2605z"/>
<path d="M2277 5426 c-39 -14 -462 -422 -1018 -983 -221 -222 -269 -275 -278
-308 -16 -57 -13 -104 8 -150 12 -28 204 -225 625 -645 334 -332 621 -613 638
-624 22 -14 48 -20 92 -20 67 1 106 16 148 61 55 58 58 77 58 388 l0 285 215
0 c308 0 450 -27 642 -121 204 -101 365 -254 508 -485 72 -116 182 -125 259
-21 20 27 21 40 20 310 0 222 -4 302 -17 377 -97 532 -418 929 -910 1124 -153
61 -389 102 -612 108 l-100 3 -3 265 c-2 146 -8 282 -13 303 -13 51 -82 119
-135 135 -52 15 -79 15 -127 -2z"/>
</g>
</svg>
